<?xml version="1.0" encoding="UTF-8"?><svg id="OBJECTS" xmlns="http://www.w3.org/2000/svg" viewBox="0 0 500.27 500.27"><defs><style>.cls-1{fill:#fff;}.cls-2{fill:url(#Nueva_muestra_de_degradado_1);}</style><linearGradient id="Nueva_muestra_de_degradado_1" x1=".07" y1="190.52" x2="344.14" y2="190.52" gradientUnits="userSpaceOnUse"><stop offset="0" stop-color="#5044ff"/><stop offset=".35" stop-color="#8570ff"/><stop offset=".79" stop-color="#c2a3ff"/><stop offset="1" stop-color="#dbb7ff"/></linearGradient></defs><path class="cls-1" d="M490.73,214.79l-41.26-71.45h-241.07c-22.22,0-44.65,11.64-44.65,37.64,0,24.62,20.03,44.64,44.65,44.64h76.7c16.75,0,33.19,4.48,47.55,12.95,0,0,.01,0,.02,0,28.43,16.79,46.1,47.71,46.1,80.7,0,50.22-39.39,86.66-93.67,86.66h-116.14c14.65,4.6,24.83,18.55,25.16,34.97.39,19.53,16.35,35.25,35.97,35.25h108.2c26.2,0,50.42-13.98,63.52-36.67l88.92-154.02c12.63-21.87,12.63-48.82,0-70.69Z"/><path class="cls-2" d="M329.75,319.29c0-15.73-8.43-30.48-22-38.48,0,0,0,0,0,0-6.82-4.03-14.65-6.15-22.64-6.15h-76.7c-51.65,0-93.67-42.02-93.67-93.67s39.39-86.67,93.67-86.67h135.73c-11.22-6.54-18.84-18.56-18.84-32.48,0-20.84-16.89-37.73-37.73-37.73h-125.59c-26.2,0-50.42,13.98-63.52,36.67L9.54,214.79c-12.63,21.87-12.63,48.82,0,70.69l41.25,71.45h234.31c22.22,0,44.64-11.64,44.64-37.64Z"/></svg>
